<svg xmlns="http://www.w3.org/2000/svg" xmlns:xlink="http://www.w3.org/1999/xlink" width="512" height="512"><defs><radialGradient id="b" cx="18.25" cy="15.72" r="29.99" gradientTransform="matrix(53.6 0 0 53.6 -250.78 -192.68)" gradientUnits="userSpaceOnUse"><stop offset="0" stop-color="#d3e9ff"/><stop offset=".16" stop-color="#d3e9ff"/><stop offset=".75" stop-color="#4074ae"/><stop offset="1" stop-color="#36486c"/></radialGradient><radialGradient id="p" cx="15.6" cy="12.14" r="43.53" gradientTransform="matrix(53.6 0 0 53.6 -250.78 -192.68)" gradientUnits="userSpaceOnUse"><stop offset="0" stop-color="#fff"/><stop offset="1" stop-color="#fff" stop-opacity=".16"/></radialGradient><radialGradient id="c" cx="11.83" cy="10.48" r="32.67" gradientTransform="matrix(52.85 0 0 45.44 279.12 -192.68)" gradientUnits="userSpaceOnUse"><stop offset="0" stop-color="#fff"/><stop offset="1" stop-color="#fff" stop-opacity="0"/></radialGradient><radialGradient xlink:href="#a" id="d" cx="18.63" cy="17.49" r="40.69" fx="18.93" fy="17.81" gradientTransform="scale(1.04 .96)" gradientUnits="userSpaceOnUse"/><radialGradient xlink:href="#a" id="e" cx="18.63" cy="17.49" r="40.69" fx="18.93" fy="17.81" gradientTransform="scale(1.04 .96)" gradientUnits="userSpaceOnUse"/><radialGradient xlink:href="#a" id="f" cx="18.63" cy="17.49" r="40.69" fx="18.93" fy="17.81" gradientTransform="scale(1.04 .96)" gradientUnits="userSpaceOnUse"/><radialGradient xlink:href="#a" id="g" cx="18.63" cy="17.49" r="40.69" fx="18.93" fy="17.81" gradientTransform="scale(1.04 .96)" gradientUnits="userSpaceOnUse"/><radialGradient xlink:href="#a" id="h" cx="18.63" cy="17.49" r="40.69" fx="18.93" fy="17.81" gradientTransform="scale(1.04 .96)" gradientUnits="userSpaceOnUse"/><radialGradient xlink:href="#a" id="k" cx="18.63" cy="17.49" r="40.69" fx="18.93" fy="17.81" gradientTransform="scale(1.04 .96)" gradientUnits="userSpaceOnUse"/><radialGradient xlink:href="#a" id="i" cx="18.63" cy="17.49" r="40.69" fx="18.93" fy="17.81" gradientTransform="scale(1.04 .96)" gradientUnits="userSpaceOnUse"/><radialGradient xlink:href="#a" id="l" cx="18.63" cy="17.49" r="40.69" fx="18.93" fy="17.81" gradientTransform="scale(1.04 .96)" gradientUnits="userSpaceOnUse"/><radialGradient xlink:href="#a" id="m" cx="18.63" cy="17.49" r="40.69" fx="18.93" fy="17.81" gradientTransform="scale(1.04 .96)" gradientUnits="userSpaceOnUse"/><radialGradient xlink:href="#a" id="n" cx="18.63" cy="17.49" r="40.69" fx="18.93" fy="17.81" gradientTransform="scale(1.04 .96)" gradientUnits="userSpaceOnUse"/><radialGradient xlink:href="#a" id="o" cx="18.63" cy="17.49" r="40.69" fx="18.93" fy="17.81" gradientTransform="scale(1.04 .96)" gradientUnits="userSpaceOnUse"/><linearGradient id="a"><stop offset="0" stop-color="#fff"/><stop offset=".38" stop-color="#fefefe"/><stop offset="1" stop-color="#1d1d1d"/></linearGradient><clipPath id="j" clipPathUnits="userSpaceOnUse"><path fill="red" stroke-width="1.02" d="M5.7 7.92v32.96h16.23V7.92h-7.58l-.04.04a.52.52 0 0 1-.06.03l-.08.04a.18.18 0 0 1-.1.06l-.01.02-.02.01v.01l-.07.04-.02.02a4.54 4.54 0 0 1-.27.2l-.02.02-.06.05-.1.09c-.04.03-.1.07-.16.03h-.08c-.03 0-.08 0-.1-.02-.08-.08-.07-.1-.05-.2v-.02a.36.36 0 0 1 .15-.12l.06-.03.07-.03a1.32 1.32 0 0 0 .15-.11h.01l.01-.02a1.5 1.5 0 0 0 .1-.09h.02l.01-.02z"/></clipPath></defs><g transform="scale(.24)"><path fill="url(#b)" stroke="#39396c" stroke-width="53.6" d="M2105.3 1066.03c0 574.01-465.31 1039.33-1039.22 1039.33-574.01 0-1039.28-465.32-1039.28-1039.33C26.78 492.07 492.07 26.8 1066.08 26.8c573.9 0 1039.23 465.27 1039.23 1039.23z"/><ellipse cx="1075.66" cy="625.79" fill="url(#c)" opacity=".42" rx="579.3" ry="498.09"/><path fill-opacity=".71" d="m2076.1 910.42-28.7 32.54c-17.58-20.74-37.32-38.17-57.33-56.39l-44.01 6.48-40.23-45.44v56.23l34.43 26.06 22.96 26.01 30.64-34.64a11090.5 11090.5 0 0 1 22.96 43.33v43.28l-34.49 38.96-63.13 43.33-47.8 47.76-30.65-34.8 15.32-38.97-30.64-34.64-51.65-110.46-44.02-49.76-11.53 12.95 17.27 62.87 32.54 36.8c18.53 53.55 36.91 104.78 61.29 156 37.8 0 73.4-4.05 110.93-8.73v30.32l-45.9 112.63-42.13 47.6-34.43 73.76v121.25l11.53 47.7-19.17 21.6-42.12 26-44.01 36.8 36.38 41.18-49.76 43.38 9.58 28.06-74.65 84.56h-49.76l-42.12 26.01h-26.8v-34.7l-11.43-69.39a6665.36 6665.36 0 0 0-45.9-129.89c0-31.85 1.89-63.44 3.78-95.3l19.17-43.33-26.8-52.02 1.95-71.45-36.44-41.17 18.22-59.5-29.64-33.64h-51.7l-17.22-19.48-51.65 32.54-21.06-23.9-47.86 41.17a63667.24 63667.24 0 0 0-97.62-110.47l-38.22-91.03 34.43-51.91-19.11-21.64 42.06-99.72c34.54-42.97 70.61-84.2 107.15-125.58l65.08-17.32 72.7-8.69 49.76 13.06 70.82 71.4 24.9-28.12 34.38-4.32 65.08 21.64h49.81l34.43-30.33 15.32-21.63-34.48-21.7-57.44-4.31c-15.96-22.07-30.75-45.34-49.7-64.98l-19.17 8.64-7.64 56.34-34.48-38.97-7.58-43.38-38.28-30.22h-15.38l38.33 43.28-15.32 38.96-30.59 8.63 19.11-38.96-34.48-17.27-30.6-34.64-57.43 12.95-7.64 17.27-34.43 21.7-19.12 47.7-47.86 23.8-21.06-23.8h-22.95v-78.04l49.8-26h38.23l-7.69-30.28-30.53-30.33 51.6-10.84 28.69-32.49 22.96-39.01h42.17l-11.53-30.28 26.8-17.32v34.64l57.39 12.96 57.39-47.6 3.84-21.7 49.76-34.64c-18.01 2.27-36.02 3.9-53.6 8.7v-39.05l19.11-43.32h-19.11l-42.02 38.98-11.53 21.69 11.53 30.33-19.22 51.96-30.59-17.32-26.74-30.33-42.12 30.33-15.33-69.29 72.72-47.66v-26.01l45.9-30.32 72.72-17.35 49.8 17.35 91.83 17.33-22.96 25.97h-49.75l49.75 52 38.28-43.31 11.64-19.05s146.74 131.5 230.56 275.39c83.87 143.9 123.25 313.54 123.25 347.97zM1128.33 306.1l-3.84 25.97 26.85 17.35 45.86-30.33-22.96-26-30.64 17.36-15.27-4.34m42.12-177.6-99.51-39-114.78 12.99-141.68 38.97-26.75 26.02 87.98 60.62v34.65l-34.43 34.66 45.96 91.02 30.54-17.38 38.38-60.6c59.13-18.29 112.15-39 168.33-65l45.96-116.95m103.35 363.91-15.32-39.01-26.85 8.69 7.74 47.6 34.44-17.28"/><path fill-opacity=".71" d="m1289.07 483.68-7.63 52.02 42.07-8.68 30.59-30.28-26.75-26c-9-23.96-19.37-46.34-30.64-69.35h-22.9v26.01l15.26 17.32v38.96m-566.42 823.1-30.64-60.65-57.39-13-30.64-82.25-76.5 8.63-65.08-47.6-68.92 60.6v9.6c-20.85-6.06-46.5-6.85-65.03-18.28l-15.32-43.28v-47.7l-45.92 4.32c3.83-30.33 7.63-60.6 11.5-90.93h-26.82l-26.77 34.64-26.81 12.96-38.28-21.6-3.84-47.64 7.66-52.02 57.44-43.28h45.91l7.64-26 57.4 12.94 42.12 52.02L382 821.6l72.76-60.65 26.75-64.98 53.6-21.64 30.59-43.28L634.62 618l34.43-51.97H565.7l65.08-30.33h45.9l65.08-21.69 7.7-25.9-23.02-21.7-26.8-8.68 7.7-26.01-19.12-38.96-45.97 17.26 7.7-34.59-53.6-30.35-42.08 73.58 3.8 26L516 462.1l-26.86 56.28-11.47-51.97-72.71-30.38-11.48-38.96 95.66-56.34 42.13-38.97 3.84-47.64-22.96-13.01-30.64-4.34-19.11 47.66s-32.01 6.27-40.23 8.3C317.08 389.6 104.72 598.63 55.38 993.31c1.96 9.16 35.76 62.23 35.76 62.23l80.37 47.6 80.37 21.7 34.45 43.38 53.6 38.96 30.6-4.32 22.95 10.32v7l-30.6 82.3-23 34.64 7.69 17.38-19.12 64.92 68.87 125.62 68.87 60.7 30.64 43.29L493 1740l23 51.97-23 99.61s-1.8-.58 1.16 9.37c2.94 10 122.62 76.4 130.2 70.77 7.58-5.74 14.06-10.8 14.06-10.8l-7.63-21.58 30.59-30.38 11.53-30.33 49.75-17.37 38.28-95.3-11.48-25.96 26.75-38.96 57.39-13.06 30.64-69.29-7.63-86.61 45.9-64.97 7.64-65.03c-62.81-31.11-125.1-63.23-187.49-95.3m-84.2-983.38 38.23 26.02h30.64V319.1l-38.22-17.33-30.65 21.65"/><path fill-opacity=".71" d="m538.95 288.78-19.16 47.64h38.27l19.17-43.32c16.53-11.68 32.96-23.42 49.76-34.66l38.27 13.01c25.49 17.33 51.02 34.66 76.56 51.96l38.27-34.63-42.12-17.33-19.16-39-72.71-8.66-3.85-21.67-34.43 8.68-15.27 30.32-19.16-39-7.64 17.33 3.85 43.32-30.65 26.01m137.74-108.34 19.16-17.3 38.28-8.66c26.22-12.75 52.55-21.34 80.4-30.34l-15.27-26-49.44 7.1-23.32 23.27-38.5 5.58-34.22 16.07-16.63 8.04-10.16 13.6 49.7 8.64m65.07 411.55 23.01-34.65-34.48-25.95 11.47 60.6"/><path fill="url(#d)" d="m44.07 20.71-.54.62c-.34-.4-.71-.72-1.1-1.07l-.83.12-.76-.86v1.07l.65.5.44.49.58-.66.44.82v.83l-.66.73-1.2.83-.9.9-.59-.66.3-.74-.59-.65-.98-2.1-.84-.95-.22.25.33 1.2.62.7c.35 1 .7 1.98 1.16 2.95.72 0 1.4-.07 2.11-.16v.57l-.87 2.14-.8.9-.65 1.4v2.31l.21.9-.36.42-.8.5-.84.7.7.77-.95.83.18.53-1.42 1.6h-.94l-.8.5h-.51v-.66l-.22-1.32-.87-2.46c0-.6.04-1.2.07-1.81l.37-.83-.51-.99.04-1.35-.7-.78.35-1.13-.56-.64h-.99l-.32-.37-.98.61-.4-.45-.91.78-1.86-2.1-.72-1.72.65-.99-.36-.41.8-1.9c.65-.81 1.34-1.6 2.03-2.38l1.24-.33 1.38-.16.94.24 1.35 1.36.47-.53.65-.09 1.24.41h.95l.65-.57.3-.41-.66-.41-1.1-.09c-.3-.41-.58-.86-.94-1.23l-.36.16-.15 1.07-.65-.74-.15-.82-.72-.57h-.3l.73.82-.29.74-.58.16.36-.74-.65-.33-.58-.65-1.1.24-.14.33-.65.41-.36.9-.91.46-.4-.45h-.44v-1.48l.95-.5h.72l-.14-.57-.58-.58.98-.2.54-.62.44-.74h.8l-.22-.58.5-.33v.66l1.1.25 1.09-.9.07-.42.95-.66c-.35.05-.69.08-1.02.17v-.74l.36-.83h-.36l-.8.74-.22.42.22.57-.36.99-.59-.33-.5-.58-.8.58-.3-1.32 1.39-.9v-.5l.87-.57 1.38-.33.95.33 1.74.33-.44.5h-.94l.94.98.73-.82.22-.37s2.79 2.5 4.38 5.24c1.6 2.73 2.34 5.95 2.34 6.6z" color="#000" transform="translate(-255.11 -191.02) scale(52.65)"/><path fill="url(#e)" d="m26.07 9.24-.07.49.5.33.88-.58-.44-.5-.58.34-.29-.08" color="#000" transform="translate(-255.11 -191.02) scale(52.65)"/><path fill="url(#f)" d="m26.87 5.86-1.89-.74-2.18.25-2.7.74-.5.5 1.67 1.14v.66l-.65.66.87 1.73.58-.33.73-1.15A25 25 0 0 0 26 8.08l.87-2.22" color="#000" transform="translate(-255.11 -191.02) scale(52.65)"/><path fill="url(#g)" d="m28.83 12.78-.29-.75-.5.17.14.9.65-.32" color="#000" transform="translate(-255.11 -191.02) scale(52.65)"/><path fill="url(#h)" d="m29.12 12.6-.14 1 .8-.17.58-.57-.51-.5c-.17-.45-.37-.88-.58-1.31h-.44v.49l.3.33v.74" color="#000" transform="translate(-255.11 -191.02) scale(52.65)"/><g fill="url(#i)" clip-path="url(#j)" color="#000" transform="translate(-255.11 -191.02) scale(52.65)"><path fill="url(#k)" d="m18.36 28.24-.58-1.15-1.09-.25-.58-1.56-1.45.16-1.24-.9-1.3 1.15v.18c-.4-.11-.89-.13-1.24-.34l-.3-.83v-.9l-.87.08.22-1.73h-.5l-.51.66-.51.25-.73-.41-.07-.9.14-1 1.1-.82h.86l.15-.5 1.09.26.8.98.14-1.64 1.39-1.16.5-1.23 1.02-.41.58-.82 1.31-.25.66-.99h-1.97l1.24-.57h.87l1.24-.42.14-.49-.43-.4-.51-.17.14-.5-.36-.74-.87.33.14-.66-1.01-.57-.8 1.4.07.49-.8.33-.51 1.07-.22-.99-1.38-.58-.22-.74 1.82-1.07.8-.74.07-.9-.43-.25-.58-.08-.37.9-.76.16c-2 1.84-6.03 5.81-6.97 13.3.04.18.68 1.19.68 1.19l1.53.9 1.52.42.66.82 1.02.74.58-.08.43.2v.13l-.58 1.56-.43.66.14.33-.36 1.23 1.3 2.39 1.31 1.15.59.82-.08 1.73.44.99-.44 1.89s-.03-.01.03.18c.05.19 2.32 1.45 2.47 1.34l.27-.2-.15-.41.58-.58.22-.58.95-.33.72-1.8-.22-.5.51-.74 1.1-.25.57-1.31-.14-1.65.87-1.23.15-1.24c-1.2-.59-2.38-1.2-3.56-1.8"/></g><path fill="url(#l)" d="m16.77 9.56.72.5h.58v-.58l-.72-.33-.58.41" color="#000" transform="translate(-255.11 -191.02) scale(52.65)"/><path fill="url(#m)" d="m14.88 8.9-.37.91h.73L15.6 9c.32-.22.63-.45.95-.66l.72.25 1.46.98.73-.65-.8-.33-.37-.74-1.38-.17-.07-.4-.66.16-.29.57-.36-.74-.14.33.07.82-.58.5" color="#000" transform="translate(-255.11 -191.02) scale(52.65)"/><path fill="url(#n)" d="m17.5 6.85.36-.33.72-.16c.5-.25 1-.4 1.53-.58l-.29-.5-.94.14-.44.44-.73.1-.65.31-.32.16-.2.26.95.16" color="#000" transform="translate(-255.11 -191.02) scale(52.65)"/><path fill="url(#o)" d="m18.73 14.67.44-.66-.66-.5.22 1.16" color="#000" transform="translate(-255.11 -191.02) scale(52.65)"/><path fill="none" stroke="url(#p)" stroke-width="53.6" d="M2052.52 1066.08c0 544.8-441.69 986.49-986.5 986.49-544.8 0-986.48-441.69-986.48-986.49.02-544.86 441.68-986.49 986.49-986.49 544.8 0 986.49 441.63 986.49 986.49z"/><path fill="none" stroke="#39396c" stroke-width="53.6" d="M2105.3 1066.03c0 574.01-465.31 1039.33-1039.22 1039.33-574.01 0-1039.28-465.32-1039.28-1039.33C26.78 492.07 492.07 26.8 1066.08 26.8c573.9 0 1039.23 465.27 1039.23 1039.23z"/></g></svg>